<svg width="32" height="32" viewBox="0 0 32 32" fill="none" xmlns="http://www.w3.org/2000/svg">
<path d="M16.0001 21.3332C18.9456 21.3332 21.3334 18.9454 21.3334 15.9998C21.3334 13.0543 18.9456 10.6665 16.0001 10.6665C13.0546 10.6665 10.6667 13.0543 10.6667 15.9998C10.6667 18.9454 13.0546 21.3332 16.0001 21.3332Z" stroke="#ADADAE" stroke-width="2.4" stroke-linecap="round" stroke-linejoin="round"/>
<path d="M21.3334 10.6667V17.3333C21.3334 18.3942 21.7549 19.4116 22.505 20.1617C23.2551 20.9119 24.2726 21.3333 25.3334 21.3333C26.3943 21.3333 27.4117 20.9119 28.1619 20.1617C28.912 19.4116 29.3334 18.3942 29.3334 17.3333V16C29.3332 12.9907 28.3151 10.07 26.4445 7.71269C24.5739 5.35543 21.9608 3.70029 19.0303 3.01638C16.0997 2.33248 13.024 2.66004 10.3032 3.94581C7.58244 5.23158 5.37662 7.39993 4.04444 10.0983C2.71225 12.7966 2.33205 15.8663 2.96565 18.8081C3.59925 21.75 5.2094 24.391 7.53427 26.3017C9.85914 28.2124 12.762 29.2805 15.7709 29.3322C18.7797 29.3839 21.7176 28.4163 24.1068 26.5867" stroke="#ADADAE" stroke-width="2.4" stroke-linecap="round" stroke-linejoin="round"/>
</svg>
